<svg width="30" height="30" xmlns="http://www.w3.org/2000/svg">
    <g id="svg_2">
        <svg fill="black" x="0" id="svg_1" viewBox="0 0 30 30" height="30" width="30">
            <title>Slice 1</title>
            <path id="svg_3" fill-rule="evenodd" fill="#0379C4" d="m20.004,13.627l-6.25,10.47l-1.13,0l1.118,-6.823l-3.466,0.005l-0.05,0a0.568,0.568 0 0 1 -0.564,-0.57c0,-0.134 0.125,-0.363 0.125,-0.363l6.228,-10.46l1.15,0.006l-1.146,6.833l3.483,-0.004l0.055,0c0.312,0 0.566,0.255 0.566,0.57a0.56,0.56 0 0 1 -0.12,0.334l0.001,0.002zm-5.108,-13.627c-8.226,0 -14.896,6.716 -14.896,15c0,8.285 6.67,15 14.896,15c8.228,0 14.896,-6.715 14.896,-15c0,-8.284 -6.668,-15 -14.896,-15z"/>
        </svg>
    </g>
</svg>